<?xml version="1.0" encoding="UTF-8"?>
<svg width="295px" height="235px" viewBox="0 0 295 235" version="1.1" xmlns="http://www.w3.org/2000/svg" xmlns:xlink="http://www.w3.org/1999/xlink">
    <!-- Generator: Sketch 44.1 (41455) - http://www.bohemiancoding.com/sketch -->
    <title>Group</title>
    <desc>Created with Sketch.</desc>
    <defs></defs>
    <g id="Page-1" stroke="none" stroke-width="1" fill="none" fill-rule="evenodd">
        <g id="Desktop-HD" transform="translate(-44.000000, -45.000000)">
            <g id="Group" transform="translate(44.000000, 45.000000)">
                <rect id="Rectangle" fill="#F3F3F3" x="0" y="0" width="295" height="235"></rect>
                <g id="1-estrutura" transform="translate(82.000000, 52.000000)" fill-rule="nonzero" fill="#414141">
                    <path d="M117.6,0 C109.6584,0 103.2,6.4584 103.2,14.4 C103.2,16.884 103.8312,19.2216 104.9424,21.264 L81.3528,44.8536 C78.1008,42.3216 74.0304,40.8 69.6,40.8 C65.1696,40.8 61.0992,42.3216 57.8448,44.8512 L39.4392,26.4456 C40.284,25.0176 40.8,23.376 40.8,21.6 C40.8,16.3056 36.4944,12 31.2,12 C25.9056,12 21.6,16.3056 21.6,21.6 C21.6,26.8944 25.9056,31.2 31.2,31.2 C32.976,31.2 34.6176,30.684 36.0456,29.8392 L54.4512,48.2448 C51.9216,51.4992 50.4,55.5696 50.4,60 C50.4,64.4304 51.9216,68.5008 54.4512,71.7528 L24.0576,102.1488 C21.4992,99.828 18.1176,98.4 14.4,98.4 C6.4584,98.4 0,104.8584 0,112.8 C0,120.7416 6.4584,127.2 14.4,127.2 C22.3416,127.2 28.8,120.7416 28.8,112.8 C28.8,110.316 28.1688,107.9784 27.0576,105.936 L57.8472,75.1464 C60.5016,77.2104 63.7032,78.5928 67.2024,79.032 L67.2024,103.416 C60.4032,104.5632 55.2024,110.4768 55.2024,117.6 C55.2024,125.5416 61.6608,132 69.6024,132 C77.544,132 84.0024,125.5416 84.0024,117.6 C84.0024,110.4792 78.8016,104.5656 72.0024,103.416 L72.0024,79.032 C75.5016,78.5928 78.7032,77.2104 81.3576,75.1464 L99.7632,93.552 C98.916,94.9824 98.4,96.624 98.4,98.4 C98.4,103.6944 102.7056,108 108,108 C113.2944,108 117.6,103.6944 117.6,98.4 C117.6,93.1056 113.2944,88.8 108,88.8 C106.224,88.8 104.5824,89.316 103.1544,90.1608 L84.7488,71.7552 C87.2784,68.5008 88.8,64.4304 88.8,60 C88.8,55.5696 87.2784,51.4992 84.7488,48.2472 L107.9448,25.0512 C110.5008,27.372 113.8824,28.8 117.6,28.8 C125.5416,28.8 132,22.3416 132,14.4 C132,6.4584 125.5416,0 117.6,0 Z M26.4,21.6 C26.4,18.9528 28.5528,16.8 31.2,16.8 C33.8472,16.8 36,18.9528 36,21.6 C36,24.2472 33.8472,26.4 31.2,26.4 C28.5528,26.4 26.4,24.2472 26.4,21.6 Z M14.4,122.4 C9.1056,122.4 4.8,118.0944 4.8,112.8 C4.8,107.5056 9.1056,103.2 14.4,103.2 C19.6944,103.2 24,107.5056 24,112.8 C24,118.0944 19.6944,122.4 14.4,122.4 Z M79.2,117.6 C79.2,122.8944 74.8944,127.2 69.6,127.2 C64.3056,127.2 60,122.8944 60,117.6 C60,112.3056 64.3056,108 69.6,108 C74.8944,108 79.2,112.3056 79.2,117.6 Z M69.6,74.4 C61.6584,74.4 55.2,67.9416 55.2,60 C55.2,52.0584 61.6584,45.6 69.6,45.6 C77.5416,45.6 84,52.0584 84,60 C84,67.9416 77.5416,74.4 69.6,74.4 Z M112.8,98.4 C112.8,101.0472 110.6472,103.2 108,103.2 C105.3528,103.2 103.2,101.0472 103.2,98.4 C103.2,95.7528 105.3528,93.6 108,93.6 C110.6472,93.6 112.8,95.7528 112.8,98.4 Z M117.6,24 C112.3056,24 108,19.6944 108,14.4 C108,9.1056 112.3056,4.8 117.6,4.8 C122.8944,4.8 127.2,9.1056 127.2,14.4 C127.2,19.6944 122.8944,24 117.6,24 Z" id="Shape"></path>
                </g>
            </g>
        </g>
    </g>
</svg>