<?xml version="1.0" encoding="UTF-8"?>
<svg width="295px" height="235px" viewBox="0 0 295 235" version="1.1" xmlns="http://www.w3.org/2000/svg" xmlns:xlink="http://www.w3.org/1999/xlink">
    <!-- Generator: Sketch 44.1 (41455) - http://www.bohemiancoding.com/sketch -->
    <title>Group 10</title>
    <desc>Created with Sketch.</desc>
    <defs></defs>
    <g id="Page-1" stroke="none" stroke-width="1" fill="none" fill-rule="evenodd">
        <g id="Desktop-HD" transform="translate(-387.000000, -583.000000)">
            <g id="Group-10" transform="translate(387.000000, 583.000000)">
                <rect id="Rectangle" fill="#F3F3F3" x="0" y="0" width="295" height="235"></rect>
                <g id="10-memoria" transform="translate(78.000000, 46.000000)" fill-rule="nonzero" fill="#414141">
                    <path d="M74.7657268,10.9433224 L14.0807,10.9433224 C12.2082683,10.9433224 10.6904561,12.4602353 10.6904561,14.3315576 L10.6904561,74.9809694 C10.6904561,76.8522918 12.2082683,78.3692047 14.0807,78.3692047 L74.7657268,78.3692047 C76.6378195,78.3692047 78.1559707,76.8522918 78.1559707,74.9809694 L78.1559707,14.3315576 C78.1559707,12.4602353 76.6381585,10.9433224 74.7657268,10.9433224 Z M27.8040683,37.1814776 C27.8040683,33.8606682 30.5074488,31.1592282 33.8298878,31.1592282 C37.1523268,31.1592282 39.8557073,33.8610071 39.8557073,37.1814776 C39.8557073,40.5019482 37.1523268,43.2037271 33.8298878,43.2037271 C30.5074488,43.2037271 27.8040683,40.5022871 27.8040683,37.1814776 Z M62.2194512,71.5927341 L47.8143049,71.5927341 L47.8143049,61.9508329 C47.8143049,60.0286871 48.5638878,58.2197082 49.9233756,56.8586541 C51.2835415,55.4992941 53.0918976,54.7508329 55.015522,54.7508329 C58.9878707,54.7508329 62.2197902,57.9808376 62.2197902,61.9508329 L62.2197902,71.5927341 L62.2194512,71.5927341 Z M55.016539,47.9740235 C51.693761,47.9740235 48.9907195,45.2722447 48.9907195,41.9517741 C48.9907195,38.6313035 51.6941,35.9295247 55.016539,35.9295247 C58.338978,35.9295247 61.0423585,38.6313035 61.0423585,41.9517741 C61.0423585,45.2722447 58.3393171,47.9740235 55.016539,47.9740235 Z M33.8302268,49.9805365 C37.8018976,49.9805365 41.033139,53.2098635 41.033139,57.1791812 L41.033139,71.5927341 L26.6269756,71.5927341 L26.6269756,57.1791812 C26.6269756,53.2095247 29.8585561,49.9805365 33.8302268,49.9805365 Z M71.3754829,71.5927341 L68.999939,71.5927341 L68.999939,61.9508329 C68.999939,57.6101647 67.0095268,53.7255529 63.8932146,51.16032 C66.3118146,48.8309082 67.8228463,45.5660047 67.8228463,41.9517741 C67.8228463,34.8944188 62.078078,29.1530541 55.016539,29.1530541 C51.4601732,29.1530541 48.2391024,30.6103341 45.9164463,32.9570259 C44.1660634,27.9698824 39.4105683,24.3830965 33.8302268,24.3830965 C26.7686878,24.3830965 21.0239195,30.1244612 21.0239195,37.1818165 C21.0239195,40.7957082 22.5349512,44.0599341 24.9532122,46.3896847 C21.8369,48.9549176 19.8468268,52.8391906 19.8468268,57.17952 L19.8468268,71.5930729 L17.4712829,71.5930729 L17.4712829,17.7201318 L71.375822,17.7201318 L71.375822,71.5927341 L71.3754829,71.5927341 Z" id="Shape"></path>
                    <path d="M135.574159,41.4018635 L113.411795,41.4018635 L113.411795,28.0352753 C113.411795,26.1639529 111.893644,24.64704 110.021551,24.64704 L88.7487878,24.64704 L88.7487878,3.38823529 C88.7487878,1.51691294 87.2306366,0 85.3585439,0 L3.48822195,0 C1.61579024,0 0.0979780488,1.51691294 0.0979780488,3.38823529 L0.0979780488,98.9317271 C0.0979780488,100.803049 1.61579024,102.319962 3.48822195,102.319962 L24.7603073,102.319962 L24.7603073,123.580122 C24.7603073,125.451445 26.2781195,126.968358 28.1505512,126.968358 L50.3129146,126.968358 L50.3129146,140.335285 C50.3129146,142.206607 51.8307268,143.72352 53.7031585,143.72352 L135.574159,143.72352 C137.446251,143.72352 138.964402,142.206607 138.964402,140.335285 L138.964402,44.7904376 C138.964402,42.9187765 137.446251,41.4018635 135.574159,41.4018635 Z M106.631307,31.4235106 L106.631307,41.4022024 L88.7487878,41.4022024 L88.7487878,31.4235106 L106.631307,31.4235106 Z M67.6879146,102.319962 L85.3585439,102.319962 C85.4443171,102.319962 85.5287341,102.313186 85.6128122,102.307087 L92.2427732,108.93312 C92.8787829,109.568414 93.740922,109.925534 94.6400146,109.925534 C95.5391073,109.925534 96.4015854,109.568414 97.0372561,108.932781 L114.515998,91.4613459 C117.491954,88.4905412 119.131137,84.5371482 119.131137,80.3292988 C119.131137,76.1251765 117.492632,72.1721224 114.517693,69.1986071 C111.542415,66.2250918 107.587017,64.5875576 103.380063,64.5875576 C100.220017,64.5875576 97.2016829,65.5115294 94.6342512,67.2320753 C92.8543732,66.0485647 90.8473488,65.2404706 88.7484488,64.8521788 L88.7484488,59.1223341 L121.592454,59.1223341 L121.592454,112.995275 L67.6875756,112.995275 L67.6875756,102.319962 L67.6879146,102.319962 Z M88.7487878,71.8288941 C90.0526756,72.2663153 91.253161,73.0008847 92.2431122,73.9905882 C93.5673415,75.3136941 95.7133659,75.3136941 97.0379341,73.9905882 C98.732378,72.2968094 100.985195,71.3643671 103.380741,71.3643671 C105.776288,71.3643671 108.029105,72.2971482 109.723549,73.9905882 C111.417993,75.6843671 112.351327,77.9355106 112.351327,80.3296376 C112.351327,82.7261365 111.418671,84.9769412 109.723549,86.6690259 L94.6403537,101.745995 L88.7491268,95.85792 L88.7491268,71.8288941 L88.7487878,71.8288941 Z M6.87846585,6.77647059 L81.9683,6.77647059 L81.9683,95.5434918 L6.87846585,95.5434918 L6.87846585,6.77647059 Z M31.5404561,120.191887 L31.5404561,102.319962 L50.3125756,102.319962 L50.3125756,120.191887 L31.5404561,120.191887 Z M132.183915,136.947049 L57.0934024,136.947049 L57.0934024,102.319962 L60.9074268,102.319962 L60.9074268,116.383511 C60.9074268,118.254833 62.425239,119.771746 64.2976707,119.771746 L124.983037,119.771746 C126.855129,119.771746 128.37328,118.254833 128.37328,116.383511 L128.37328,55.7340988 C128.37328,53.8627765 126.855129,52.3458635 124.983037,52.3458635 L88.7487878,52.3458635 L88.7487878,48.1783341 L132.183915,48.1783341 L132.183915,136.947049 Z" id="Shape"></path>
                </g>
            </g>
        </g>
    </g>
</svg>