<?xml version="1.0" encoding="UTF-8"?>
<svg width="295px" height="235px" viewBox="0 0 295 235" version="1.1" xmlns="http://www.w3.org/2000/svg" xmlns:xlink="http://www.w3.org/1999/xlink">
    <!-- Generator: Sketch 44.1 (41455) - http://www.bohemiancoding.com/sketch -->
    <title>Group 2</title>
    <desc>Created with Sketch.</desc>
    <defs></defs>
    <g id="Page-1" stroke="none" stroke-width="1" fill="none" fill-rule="evenodd">
        <g id="Desktop-HD" transform="translate(-387.000000, -45.000000)">
            <g id="Group-2" transform="translate(387.000000, 45.000000)">
                <rect id="Rectangle" fill="#F3F3F3" x="0" y="0" width="295" height="235"></rect>
                <g id="2-pesquisa" transform="translate(83.000000, 53.000000)" fill-rule="nonzero" fill="#414141">
                    <path d="M119.166667,0 L10.8333333,0 C4.85983333,0 0,4.85983333 0,10.8333333 L0,78 L0,86.6666667 C0,92.6401667 4.85983333,97.5 10.8333333,97.5 L47.2376667,97.5 L43.693,117 L35.1801667,117 C32.7015,117 30.4741667,118.375833 29.3648333,120.592333 C28.3508333,122.6225 28.457,124.986333 29.6486667,126.916833 C30.8403333,128.847333 32.9095,130 35.178,130 L94.8198333,130 C97.0883333,130 99.1553333,128.847333 100.349167,126.916833 C101.543,124.986333 101.649167,122.6225 100.633,120.592333 C99.528,118.375833 97.3006667,117 94.822,117 L86.3091667,117 L82.7645,97.5 L119.166667,97.5 C125.140167,97.5 130,92.6401667 130,86.6666667 L130,78 L130,10.8333333 C130,4.85983333 125.140167,0 119.166667,0 Z M84.5,121.333333 L94.822,121.333333 C95.6475,121.333333 96.3906667,121.792667 96.7611667,122.5315 C97.2486667,123.5065 96.8565,124.329833 96.668,124.639667 C96.473,124.947333 95.9118333,125.666667 94.822,125.666667 L35.178,125.666667 C34.0881667,125.666667 33.5248333,124.947333 33.3341667,124.6375 C33.1435,124.327667 32.7513333,123.5065 33.241,122.529333 C33.6093333,121.792667 34.3525,121.333333 35.178,121.333333 L45.5,121.333333 L62.8333333,121.333333 C64.0293333,121.333333 65,120.362667 65,119.166667 C65,117.970667 64.0293333,117 62.8333333,117 L48.0956667,117 L51.6403333,97.5 L78.3575,97.5 L81.9043333,117 L75.8333333,117 C74.6373333,117 73.6666667,117.970667 73.6666667,119.166667 C73.6666667,120.362667 74.6373333,121.333333 75.8333333,121.333333 L84.5,121.333333 L84.5,121.333333 Z M125.666667,86.6666667 C125.666667,90.2503333 122.750333,93.1666667 119.166667,93.1666667 L80.1666667,93.1666667 L49.8333333,93.1666667 L10.8333333,93.1666667 C7.24966667,93.1666667 4.33333333,90.2503333 4.33333333,86.6666667 L4.33333333,80.1666667 L125.666667,80.1666667 L125.666667,86.6666667 Z M125.666667,75.8333333 L4.33333333,75.8333333 L4.33333333,10.8333333 C4.33333333,7.24966667 7.24966667,4.33333333 10.8333333,4.33333333 L119.166667,4.33333333 C122.750333,4.33333333 125.666667,7.24966667 125.666667,10.8333333 L125.666667,75.8333333 Z" id="Shape"></path>
                    <path d="M58.5,43.3333333 L36.8333333,43.3333333 L36.8333333,21.6666667 C36.8333333,20.4706667 35.8626667,19.5 34.6666667,19.5 C20.3298333,19.5 8.66666667,31.1631667 8.66666667,45.5 C8.66666667,59.8368333 20.3298333,71.5 34.6666667,71.5 C49.0035,71.5 60.6666667,59.8368333 60.6666667,45.5 C60.6666667,44.304 59.696,43.3333333 58.5,43.3333333 Z M34.6666667,67.1666667 C22.7196667,67.1666667 13,57.447 13,45.5 C13,34.2853333 21.567,25.0315 32.5,23.9416667 L32.5,45.5 C32.5,46.696 33.4706667,47.6666667 34.6666667,47.6666667 L56.225,47.6666667 C55.1351667,58.5996667 45.8813333,67.1666667 34.6666667,67.1666667 Z" id="Shape"></path>
                    <path d="M43.3333333,10.8333333 C42.1373333,10.8333333 41.1666667,11.804 41.1666667,13 L41.1666667,36.8333333 C41.1666667,38.0293333 42.1373333,39 43.3333333,39 L67.1666667,39 C68.3626667,39 69.3333333,38.0293333 69.3333333,36.8333333 C69.3333333,22.4965 57.6701667,10.8333333 43.3333333,10.8333333 Z M45.5,34.6666667 L45.5,15.275 C55.7201667,16.2933333 63.8733333,24.4465 64.8916667,34.6666667 L45.5,34.6666667 Z" id="Shape"></path>
                    <path d="M119.166667,8.66666667 L75.8333333,8.66666667 C74.6373333,8.66666667 73.6666667,9.63733333 73.6666667,10.8333333 L73.6666667,69.3333333 C73.6666667,70.5293333 74.6373333,71.5 75.8333333,71.5 L119.166667,71.5 C120.362667,71.5 121.333333,70.5293333 121.333333,69.3333333 L121.333333,10.8333333 C121.333333,9.63733333 120.362667,8.66666667 119.166667,8.66666667 Z M117,67.1666667 L78,67.1666667 L78,13 L117,13 L117,67.1666667 Z" id="Shape"></path>
                    <path d="M97.5,19.5 L84.5,19.5 C83.304,19.5 82.3333333,20.4706667 82.3333333,21.6666667 C82.3333333,22.8626667 83.304,23.8333333 84.5,23.8333333 L97.5,23.8333333 C98.696,23.8333333 99.6666667,22.8626667 99.6666667,21.6666667 C99.6666667,20.4706667 98.696,19.5 97.5,19.5 Z" id="Shape"></path>
                    <path d="M110.5,28.1666667 L84.5,28.1666667 C83.304,28.1666667 82.3333333,29.1373333 82.3333333,30.3333333 C82.3333333,31.5293333 83.304,32.5 84.5,32.5 L110.5,32.5 C111.696,32.5 112.666667,31.5293333 112.666667,30.3333333 C112.666667,29.1373333 111.696,28.1666667 110.5,28.1666667 Z" id="Shape"></path>
                    <path d="M97.5,36.8333333 L84.5,36.8333333 C83.304,36.8333333 82.3333333,37.804 82.3333333,39 C82.3333333,40.196 83.304,41.1666667 84.5,41.1666667 L97.5,41.1666667 C98.696,41.1666667 99.6666667,40.196 99.6666667,39 C99.6666667,37.804 98.696,36.8333333 97.5,36.8333333 Z" id="Shape"></path>
                    <path d="M110.5,45.5 L84.5,45.5 C83.304,45.5 82.3333333,46.4706667 82.3333333,47.6666667 C82.3333333,48.8626667 83.304,49.8333333 84.5,49.8333333 L110.5,49.8333333 C111.696,49.8333333 112.666667,48.8626667 112.666667,47.6666667 C112.666667,46.4706667 111.696,45.5 110.5,45.5 Z" id="Shape"></path>
                    <path d="M97.5,54.1666667 L84.5,54.1666667 C83.304,54.1666667 82.3333333,55.1373333 82.3333333,56.3333333 C82.3333333,57.5293333 83.304,58.5 84.5,58.5 L97.5,58.5 C98.696,58.5 99.6666667,57.5293333 99.6666667,56.3333333 C99.6666667,55.1373333 98.696,54.1666667 97.5,54.1666667 Z" id="Shape"></path>
                    <path d="M69.3333333,84.5 L60.6666667,84.5 C59.4706667,84.5 58.5,85.4706667 58.5,86.6666667 C58.5,87.8626667 59.4706667,88.8333333 60.6666667,88.8333333 L69.3333333,88.8333333 C70.5293333,88.8333333 71.5,87.8626667 71.5,86.6666667 C71.5,85.4706667 70.5293333,84.5 69.3333333,84.5 Z" id="Shape"></path>
                </g>
            </g>
        </g>
    </g>
</svg>