<?xml version="1.0" encoding="UTF-8"?>
<svg width="295px" height="235px" viewBox="0 0 295 235" version="1.1" xmlns="http://www.w3.org/2000/svg" xmlns:xlink="http://www.w3.org/1999/xlink">
    <!-- Generator: Sketch 44.1 (41455) - http://www.bohemiancoding.com/sketch -->
    <title>Group 3</title>
    <desc>Created with Sketch.</desc>
    <defs></defs>
    <g id="Page-1" stroke="none" stroke-width="1" fill="none" fill-rule="evenodd">
        <g id="Desktop-HD" transform="translate(-720.000000, -45.000000)">
            <g id="Group-3" transform="translate(720.000000, 45.000000)">
                <rect id="Rectangle" fill="#F3F3F3" x="0" y="0" width="295" height="235"></rect>
                <g id="3-evento" transform="translate(79.000000, 49.000000)" fill-rule="nonzero" fill="#414141">
                    <path d="M118.839373,93.8775085 L105.845271,112.546661 L96.6755593,105.020949 C95.6863729,104.203593 94.2211695,104.352203 93.4084576,105.34139 C92.5934237,106.332898 92.7373898,107.798102 93.7312203,108.608492 L104.844475,117.731763 C105.262441,118.075424 105.782576,118.261186 106.316644,118.261186 C106.421136,118.261186 106.527949,118.25422 106.634763,118.237966 C107.275644,118.149729 107.851508,117.79678 108.223034,117.265034 L122.652153,96.5315932 C123.383593,95.4797119 123.125847,94.0330847 122.071644,93.299322 C121.015119,92.5585932 119.570814,92.8233051 118.839373,93.8775085 Z" id="Shape"></path>
                    <path d="M120.745763,80.0614068 L120.745763,34.8305085 L120.745763,11.6101695 C120.745763,10.3260847 119.705492,9.28813559 118.423729,9.28813559 L106.813559,9.28813559 L106.813559,2.3220339 C106.813559,1.03794915 105.773288,0 104.491525,0 L88.2372881,0 C86.9555254,0 85.9152542,1.03794915 85.9152542,2.3220339 L85.9152542,9.28813559 L34.8305085,9.28813559 L34.8305085,2.3220339 C34.8305085,1.03794915 33.7902373,0 32.5084746,0 L16.2542373,0 C14.9724746,0 13.9322034,1.03794915 13.9322034,2.3220339 L13.9322034,9.28813559 L2.3220339,9.28813559 C1.04027119,9.28813559 0,10.3260847 0,11.6101695 L0,34.8305085 L0,130.033898 C0,131.317983 1.04027119,132.355932 2.3220339,132.355932 L90.8008136,132.355932 C95.4495254,135.281695 100.929525,137 106.813559,137 C123.457898,137 137,123.457898 137,106.813559 C137,95.1964237 130.391492,85.1048644 120.745763,80.0614068 Z M90.559322,4.6440678 L102.169492,4.6440678 L102.169492,11.6101695 L102.169492,18.5762712 L90.559322,18.5762712 L90.559322,11.6101695 L90.559322,4.6440678 Z M18.5762712,4.6440678 L30.1864407,4.6440678 L30.1864407,11.6101695 L30.1864407,18.5762712 L18.5762712,18.5762712 L18.5762712,11.6101695 L18.5762712,4.6440678 Z M4.6440678,13.9322034 L13.9322034,13.9322034 L13.9322034,20.8983051 C13.9322034,22.1823898 14.9724746,23.220339 16.2542373,23.220339 L32.5084746,23.220339 C33.7902373,23.220339 34.8305085,22.1823898 34.8305085,20.8983051 L34.8305085,13.9322034 L85.9152542,13.9322034 L85.9152542,20.8983051 C85.9152542,22.1823898 86.9555254,23.220339 88.2372881,23.220339 L104.491525,23.220339 C105.773288,23.220339 106.813559,22.1823898 106.813559,20.8983051 L106.813559,13.9322034 L116.101695,13.9322034 L116.101695,32.5084746 L4.6440678,32.5084746 L4.6440678,13.9322034 Z M4.6440678,127.711864 L4.6440678,37.1525424 L116.101695,37.1525424 L116.101695,78.1039322 C115.646576,77.9576441 115.182169,77.8392203 114.717763,77.7115085 C114.288186,77.5930847 113.85861,77.4769831 113.42439,77.3771356 C113.031966,77.2888983 112.634898,77.2122712 112.237831,77.1402881 C111.671254,77.0357966 111.102356,76.9498814 110.531136,76.8778983 C110.213017,76.8384237 109.89722,76.7943051 109.57678,76.7641186 C108.661898,76.6828475 107.740051,76.6271186 106.813559,76.6271186 C106.028712,76.6271186 105.260119,76.6851695 104.491525,76.7455424 L104.491525,74.3050847 L104.491525,69.6610169 L104.491525,48.7627119 L83.5932203,48.7627119 L78.9491525,48.7627119 L62.6949153,48.7627119 L58.0508475,48.7627119 L41.7966102,48.7627119 L37.1525424,48.7627119 L16.2542373,48.7627119 L16.2542373,69.6610169 L16.2542373,74.3050847 L16.2542373,90.559322 L16.2542373,95.2033898 L16.2542373,116.101695 L37.1525424,116.101695 L41.7966102,116.101695 L58.0508475,116.101695 L62.6949153,116.101695 L78.1039322,116.101695 C78.1712712,116.306034 78.2548644,116.503407 78.3245254,116.705424 C78.5195763,117.269678 78.7123051,117.836254 78.9421864,118.386576 C79.0698983,118.695407 79.2208305,118.990305 79.3601525,119.292169 C79.6271864,119.881966 79.8988644,120.469441 80.2030508,121.040661 C80.3377288,121.289119 80.488661,121.528288 80.6303051,121.774424 C80.9739661,122.375831 81.3222712,122.970271 81.7077288,123.546136 C81.8493729,123.757441 82.0049492,123.957136 82.1512373,124.166119 C82.5599153,124.746627 82.9778814,125.322492 83.430678,125.875136 C83.5978644,126.079475 83.7789831,126.269881 83.9508136,126.469576 C84.3107288,126.887542 84.6543898,127.314797 85.0375254,127.714186 L4.6440678,127.714186 L4.6440678,127.711864 Z M93.6081525,79.7107797 C93.3573729,79.8315254 93.1019492,79.9453051 92.8558136,80.0730169 C92.4192712,80.3005763 91.996661,80.5513559 91.5740508,80.7998136 C91.2048475,81.0157627 90.8356441,81.2363559 90.4757288,81.4662373 C90.1111695,81.7030847 89.7558983,81.9445763 89.4029492,82.1953559 C89.0012373,82.4786441 88.6111356,82.7758644 88.2233559,83.0777288 C87.9122034,83.3215424 87.6010508,83.5630339 87.3015085,83.8207797 C86.8951525,84.1644407 86.5073729,84.529 86.1195932,84.8935593 C85.8525593,85.146661 85.5762373,85.3904746 85.3184915,85.6505424 C84.8982034,86.0777966 84.5011356,86.5305932 84.1063898,86.9833898 C83.9392034,87.1761186 83.7557627,87.3525932 83.5908983,87.5499661 L83.5908983,74.3050847 L99.8451356,74.3050847 L99.8451356,77.4676949 C99.805661,77.4769831 99.7685085,77.4909153 99.7313559,77.5002034 C97.5927627,78.0180169 95.5447288,78.7633898 93.6081525,79.7107797 Z M77.950678,97.9875085 C77.8694068,98.2545424 77.816,98.5285424 77.7416949,98.7978983 C77.5559322,99.4712881 77.3655254,100.144678 77.2262034,100.838966 C77.1170678,101.375356 77.0566949,101.923356 76.9777458,102.466712 C76.9150508,102.905576 76.8268136,103.337475 76.7803729,103.783305 C76.6805254,104.784102 76.6271186,105.796508 76.6271186,106.813559 C76.6271186,107.651814 76.6735593,108.499356 76.7501864,109.34922 C76.7641186,109.504797 76.7641186,109.662695 76.7803729,109.818271 C76.8175254,110.194441 76.8918305,110.559 76.9429153,110.930525 C76.9429153,110.930525 76.9429153,110.932847 76.9429153,110.932847 C76.9684576,111.109322 76.9777458,111.283475 77.0056102,111.457627 L62.6949153,111.457627 L62.6949153,95.2033898 L78.9491525,95.2033898 L78.9491525,95.2196441 C78.9259322,95.2753729 78.912,95.3334237 78.8887797,95.3891525 C78.5404746,96.2366949 78.2223559,97.1028136 77.950678,97.9875085 Z M20.8983051,95.2033898 L37.1525424,95.2033898 L37.1525424,111.457627 L20.8983051,111.457627 L20.8983051,95.2033898 Z M20.8983051,74.3050847 L37.1525424,74.3050847 L37.1525424,90.559322 L20.8983051,90.559322 L20.8983051,74.3050847 Z M99.8474576,69.6610169 L83.5932203,69.6610169 L83.5932203,53.4067797 L99.8474576,53.4067797 L99.8474576,69.6610169 Z M78.9491525,69.6610169 L62.6949153,69.6610169 L62.6949153,53.4067797 L78.9491525,53.4067797 L78.9491525,69.6610169 Z M78.9491525,90.559322 L62.6949153,90.559322 L62.6949153,74.3050847 L78.9491525,74.3050847 L78.9491525,90.559322 Z M41.7966102,74.3050847 L58.0508475,74.3050847 L58.0508475,90.559322 L41.7966102,90.559322 L41.7966102,74.3050847 Z M58.0508475,69.6610169 L41.7966102,69.6610169 L41.7966102,53.4067797 L58.0508475,53.4067797 L58.0508475,69.6610169 Z M37.1525424,69.6610169 L20.8983051,69.6610169 L20.8983051,53.4067797 L37.1525424,53.4067797 L37.1525424,69.6610169 Z M41.7966102,95.2033898 L58.0508475,95.2033898 L58.0508475,111.457627 L41.7966102,111.457627 L41.7966102,95.2033898 Z M106.813559,132.355932 C101.570407,132.355932 96.6918136,130.763017 92.6328983,128.041593 C91.8410847,127.512169 91.0933898,126.936305 90.3758814,126.332576 C90.1251017,126.118949 89.8882542,125.89139 89.6467627,125.668475 C89.189322,125.252831 88.7458136,124.825576 88.3232034,124.382068 C88.0515254,124.096458 87.7891356,123.806203 87.5313898,123.511305 C87.1505763,123.072441 86.7929831,122.619644 86.444678,122.157559 C86.2217627,121.862661 85.9918814,121.577051 85.7805763,121.272864 C85.2674068,120.527492 84.7844237,119.76122 84.3525254,118.967085 C84.252678,118.781322 84.1737288,118.586271 84.0785254,118.398186 C83.7395085,117.734085 83.4237119,117.060695 83.1427458,116.368729 C83.022,116.066864 82.9175085,115.758034 82.8060508,115.451525 C82.5877797,114.843153 82.3880847,114.225492 82.2139322,113.600864 C82.1744576,113.456898 82.1396271,113.312932 82.1024746,113.168966 C81.8400847,112.147271 81.6473559,111.132542 81.5103559,110.122458 C81.5010678,110.050475 81.4871356,109.978492 81.4778475,109.904186 C81.3431695,108.861593 81.2711864,107.828288 81.2711864,106.813559 C81.2711864,105.933508 81.3153051,105.060424 81.4058644,104.194305 C81.4128305,104.122322 81.4314068,104.052661 81.4383729,103.980678 C81.5266102,103.188864 81.6427119,102.399373 81.8052542,101.621492 C81.8215085,101.547186 81.8470508,101.475203 81.8633051,101.400898 C82.0304915,100.629983 82.2278644,99.8637119 82.4670339,99.1067288 C82.4948983,99.0184915 82.5343729,98.9325763 82.5622373,98.844339 C82.8014068,98.1198644 83.0661186,97.4000339 83.3726271,96.6941356 C83.6605593,96.0300339 83.9717119,95.3775424 84.3130508,94.7436271 L84.5429322,94.3465593 C84.6358136,94.1793729 84.7449492,94.0214746 84.8424746,93.8566102 C85.2465085,93.1762542 85.6784068,92.5167966 86.1358475,91.8805593 C86.2496271,91.722661 86.3680508,91.5670847 86.4864746,91.4115085 C86.9044407,90.8588644 87.3456271,90.3271186 87.8053898,89.8139492 C87.9656102,89.6351525 88.1258305,89.4540339 88.2906949,89.2798814 C88.7458136,88.7968983 89.2241525,88.3394576 89.7141017,87.8959492 C89.8882542,87.7380508 90.0577627,87.5755085 90.2365593,87.4222542 C90.8124237,86.9299831 91.4091864,86.4678983 92.0245254,86.0290339 C92.1220508,85.9593729 92.2149322,85.8827458 92.3124576,85.8130847 C95.3427119,83.7186102 98.8234407,82.2835932 102.557271,81.6566441 L102.606034,81.649678 C103.976034,81.4197966 105.37622,81.2711864 106.813559,81.2711864 C107.716831,81.2711864 108.615458,81.3199492 109.507119,81.4174746 C109.646441,81.4314068 109.781119,81.4639153 109.920441,81.4801695 C110.682068,81.5753729 111.441373,81.6891525 112.19139,81.8516949 C112.284271,81.8725932 112.372508,81.9004576 112.463068,81.9213559 C113.261847,82.1047966 114.053661,82.3184237 114.836186,82.5808136 C114.889593,82.5993898 114.940678,82.6202881 114.994085,82.6388644 C115.795186,82.9128644 116.584678,83.226339 117.367203,83.5816102 C126.195576,87.6080169 132.355932,96.4967627 132.355932,106.813559 C132.355932,120.896695 120.896695,132.355932 106.813559,132.355932 Z" id="Shape"></path>
                </g>
            </g>
        </g>
    </g>
</svg>