<?xml version="1.0" encoding="UTF-8"?>
<svg width="295px" height="235px" viewBox="0 0 295 235" version="1.1" xmlns="http://www.w3.org/2000/svg" xmlns:xlink="http://www.w3.org/1999/xlink">
    <!-- Generator: Sketch 44.1 (41455) - http://www.bohemiancoding.com/sketch -->
    <title>Group 4</title>
    <desc>Created with Sketch.</desc>
    <defs></defs>
    <g id="Page-1" stroke="none" stroke-width="1" fill="none" fill-rule="evenodd">
        <g id="Desktop-HD" transform="translate(-1066.000000, -46.000000)">
            <g id="Group-4" transform="translate(1066.000000, 46.000000)">
                <rect id="Rectangle" fill="#F3F3F3" x="0" y="0" width="295" height="235"></rect>
                <g id="4-publicacao" transform="translate(97.000000, 49.000000)" fill-rule="nonzero" fill="#414141">
                    <path d="M77.7657937,0 L8.54403438,0 C3.89616619,0 0.111352436,3.76939066 0.111352436,8.39423142 L0.111352436,128.483894 C0.111352436,133.115715 3.89616619,136.879289 8.54403438,136.879289 L93.334384,136.879289 C97.9863438,136.879289 101.76765,133.115715 101.76765,128.483894 L101.76765,25.9555372 L77.7657937,0 Z M79.7561089,12.5609512 L90.2764298,23.9400955 L79.7561089,23.9400955 L79.7561089,12.5609512 Z M94.6852264,128.484185 C94.6852264,129.223577 94.0770258,129.830624 93.3305845,129.830624 L8.54403438,129.830624 C7.79876218,129.830624 7.19406877,129.223577 7.19406877,128.484185 L7.19406877,8.39423142 C7.19406877,7.65309342 7.79876218,7.05244586 8.54403438,7.05244586 L72.6698854,7.05244586 L72.6698854,27.4660276 C72.6698854,29.4096242 74.2606762,30.9852696 76.2147507,30.9852696 L94.6852264,30.9852696 L94.6852264,128.484185 Z M19.6880458,37.4902972 L79.8318052,37.4902972 C81.2969226,37.4902972 82.4852665,38.6729766 82.4852665,40.1311104 C82.4852665,41.5892442 81.2969226,42.7719236 79.8318052,42.7719236 L19.6880458,42.7719236 C18.2232206,42.7719236 17.0345845,41.5892442 17.0345845,40.1311104 C17.0345845,38.6732675 18.2232206,37.4902972 19.6880458,37.4902972 Z M82.4852665,57.8774098 C82.4852665,59.3352527 81.2969226,60.5182229 79.8318052,60.5182229 L19.6880458,60.5182229 C18.2232206,60.5182229 17.0345845,59.3355435 17.0345845,57.8774098 C17.0345845,56.419276 18.2232206,55.2365966 19.6880458,55.2365966 L79.8318052,55.2365966 C81.2969226,55.2365966 82.4852665,56.4195669 82.4852665,57.8774098 Z M82.4852665,75.0425499 C82.4852665,76.5006837 81.2969226,77.6833631 79.8318052,77.6833631 L19.6880458,77.6833631 C18.2232206,77.6833631 17.0345845,76.5006837 17.0345845,75.0425499 C17.0345845,73.5844161 18.2232206,72.4017367 19.6880458,72.4017367 L79.8318052,72.4017367 C81.2969226,72.4017367 82.4852665,73.5844161 82.4852665,75.0425499 Z M82.4852665,92.5000149 C82.4852665,93.9581486 81.2969226,95.140828 79.8318052,95.140828 L19.6880458,95.140828 C18.2232206,95.140828 17.0345845,93.9581486 17.0345845,92.5000149 C17.0345845,91.0418811 18.2232206,89.8592017 19.6880458,89.8592017 L79.8318052,89.8592017 C81.2969226,89.8592017 82.4852665,91.0418811 82.4852665,92.5000149 Z" id="Shape"></path>
                </g>
            </g>
        </g>
    </g>
</svg>