<?xml version="1.0" encoding="UTF-8"?>
<svg width="295px" height="235px" viewBox="0 0 295 235" version="1.1" xmlns="http://www.w3.org/2000/svg" xmlns:xlink="http://www.w3.org/1999/xlink">
    <!-- Generator: Sketch 44.1 (41455) - http://www.bohemiancoding.com/sketch -->
    <title>Group 8</title>
    <desc>Created with Sketch.</desc>
    <defs></defs>
    <g id="Page-1" stroke="none" stroke-width="1" fill="none" fill-rule="evenodd">
        <g id="Desktop-HD" transform="translate(-44.000000, -305.000000)">
            <g id="Group-8" transform="translate(44.000000, 305.000000)">
                <rect id="Rectangle" fill="#F3F3F3" x="0" y="0" width="295" height="235"></rect>
                <g id="5-difusao" transform="translate(81.000000, 42.000000)" fill-rule="nonzero" fill="#414141">
                    <path d="M132.818135,111.495555 L121.444416,101.739434 L121.444416,108.689238 L81.1352322,108.689238 L81.1352322,75.537874 L87.8244268,75.537874 L87.8244268,91.497069 L102.187749,91.497069 L102.187749,98.4468729 L113.561468,89.6041939 L102.187749,79.841126 L102.187749,86.7874567 L92.3418953,86.7874567 L92.3418953,75.537874 L106.586887,75.537874 C120.128851,75.537874 131.095372,64.5904567 131.095372,51.0833165 C131.095372,37.5761763 120.128851,26.6252859 106.586887,26.6252859 C106.545123,26.6252859 106.5138,26.6322322 106.485957,26.6322322 C106.548603,25.913287 106.590367,25.1908686 106.590367,24.4580307 C106.586887,10.9508905 95.6203664,0 82.0784017,0 C72.9077316,0 64.9308149,5.03261665 60.726576,12.4721369 C57.9075086,11.3468313 54.8413377,10.7077689 51.6220323,10.7077689 C41.0696712,10.7077689 32.1008604,17.3762464 28.6483728,26.7086418 C28.09152,26.670437 27.5381475,26.6252859 26.9708537,26.6252859 C13.4358497,26.6252859 2.46236863,37.5761763 2.46236863,51.0833165 C2.46236863,64.5904567 13.4323693,75.537874 26.9708537,75.537874 L41.2193254,75.537874 L41.2193254,86.7874567 L31.3665107,86.7874567 L31.3665107,79.841126 L19.9997524,89.6041939 L31.3665107,98.4468729 L31.3665107,91.497069 L45.7333137,91.497069 L45.7333137,75.537874 L52.4225083,75.537874 L52.4225083,108.689238 L12.1063635,108.689238 L12.1063635,101.739434 L0.739605198,111.495555 L12.1063635,120.341708 L12.1063635,113.395377 L56.9434571,113.395377 L56.9434571,75.537874 L64.4226867,75.537874 L64.4226867,139.461483 L57.458546,139.461483 L66.7753899,150.811788 L76.0957141,139.461483 L69.1350537,139.461483 L69.1350537,75.537874 L76.610803,75.537874 L76.610803,113.384957 L121.440936,113.384957 L121.440936,120.331288 L132.818135,111.495555 Z" id="Shape"></path>
                </g>
            </g>
        </g>
    </g>
</svg>