<?xml version="1.0" encoding="UTF-8"?>
<svg width="295px" height="235px" viewBox="0 0 295 235" version="1.1" xmlns="http://www.w3.org/2000/svg" xmlns:xlink="http://www.w3.org/1999/xlink">
    <!-- Generator: Sketch 44.1 (41455) - http://www.bohemiancoding.com/sketch -->
    <title>Group 7</title>
    <desc>Created with Sketch.</desc>
    <defs></defs>
    <g id="Page-1" stroke="none" stroke-width="1" fill="none" fill-rule="evenodd">
        <g id="Desktop-HD" transform="translate(-387.000000, -305.000000)">
            <g id="Group-7" transform="translate(387.000000, 305.000000)">
                <rect id="Rectangle" fill="#F3F3F3" x="0" y="0" width="295" height="235"></rect>
                <g id="6-formacao" transform="translate(87.000000, 41.000000)" fill-rule="nonzero" fill="#414141">
                    <path d="M136.717602,0.0471283784 L122.187728,10.8971284 L107.575444,44.8845439 L95.8249387,44.8845439 L91.2110307,34.9100845 L94.2255556,34.9100845 C99.7396743,34.9100845 104.223931,30.4842061 104.223931,24.983277 L104.223931,14.9611655 L109.223119,14.9611655 L109.223119,0 L94.2255556,0 L94.2255556,14.9611655 L99.2247433,14.9611655 L99.2247433,24.983277 C99.2247433,27.7313851 96.9828774,29.9228547 94.2255556,29.9228547 L88.9040766,29.9228547 L82.5149425,16.1336149 L90.1685709,12.3282601 L65.108069,1.62069257 L59.2165441,22.1901351 C59.0564483,9.95194257 49.040751,0.0450337838 36.7354215,0.0450337838 C24.3303602,0.0450337838 14.2396015,10.1116554 14.2396015,22.4870439 C14.2396015,29.9652703 18.0362337,36.9795439 24.237977,41.1263176 L24.237977,44.8840203 L18.1842567,44.8840203 L17.7942529,46.9288682 C16.5796245,53.2152703 16.4667701,59.6760473 17.459364,66.1195439 L0.40732567,96.4414189 L19.2387893,100.73272 L19.2387893,132.15897 L44.2342031,132.15897 L44.2342031,154.60098 L104.223406,154.60098 L104.223406,119.853226 C121.720038,107.505068 131.713165,87.6514527 131.698467,66.4709122 L131.703716,57.3746115 C131.703716,53.9457601 131.386149,50.422652 130.746291,46.9513851 L130.376234,44.8840203 L125.469429,44.8840203 L136.717602,18.0009459 L136.717602,0.0471283784 Z M99.2242184,10.0215878 L99.2242184,5.03435811 L104.223406,5.03435811 L104.223406,10.0215878 L99.2242184,10.0215878 L99.2242184,10.0215878 Z M90.3186935,44.8840203 L80.8378736,44.8840203 L76.2937778,34.9095608 L85.7047854,34.9095608 L90.3186935,44.8840203 Z M68.3525019,8.44069257 L78.2884138,12.6874831 L75.9436667,13.8342736 L83.3973065,29.9228547 L74.0214674,29.9228547 L67.929954,16.585 L65.6928123,17.7118919 L68.3525019,8.44069257 Z M75.3463257,44.8845439 L64.230954,44.8845439 L64.230954,39.9449662 C64.230954,37.1947635 66.4728199,34.9106081 69.2301418,34.9106081 L70.8022299,34.9106081 L70.8022299,34.9100845 L75.3463257,44.8845439 Z M65.5306169,23.3819595 L68.5624636,30.0375338 C63.3632874,30.3868074 59.2317663,34.670777 59.2317663,39.9444426 L59.2317663,44.8840203 L49.2333908,44.8840203 L49.2333908,41.1263176 C54.2352031,37.7822973 57.6292337,32.5636149 58.7740498,26.7511149 L65.5306169,23.3819595 Z M19.2393142,22.4896622 C19.2393142,12.8670946 27.0903065,5.03488176 36.7359464,5.03488176 C46.3815862,5.03488176 54.2325785,12.8670946 54.2325785,22.4896622 C54.2325785,28.683902 50.8784406,34.4712669 45.4819004,37.5906419 L44.234728,38.3085642 L44.234728,44.8840203 L39.2355402,44.8840203 L39.2355402,29.5086486 C42.1377356,28.4765372 44.234728,25.7331419 44.234728,22.4865203 C44.234728,18.3622635 40.870092,15.0056757 36.7359464,15.0056757 C32.6018008,15.0056757 29.2371648,18.3627872 29.2371648,22.4870439 C29.2371648,25.7336655 31.3341571,28.4765372 34.2363525,29.5091723 L34.2363525,44.8845439 L29.2371648,44.8845439 L29.2371648,38.3085642 L27.9899923,37.5880236 C22.5934521,34.4686486 19.2393142,28.6833784 19.2393142,22.4896622 Z M36.7359464,24.983277 C35.3559732,24.983277 34.2363525,23.8631926 34.2363525,22.4896622 C34.2363525,21.1129899 35.3559732,19.9960473 36.7359464,19.9960473 C38.1159195,19.9960473 39.2355402,21.1129899 39.2355402,22.4896622 C39.2355402,23.8663345 38.1159195,24.983277 36.7359464,24.983277 Z M126.169126,49.8717736 C126.531835,52.3648649 126.714502,54.8935642 126.714502,57.3520946 L126.719751,66.4661993 C126.734973,86.442348 116.854176,105.148649 100.324418,116.501875 L99.2247433,117.250169 L99.2247433,149.614274 L49.2339157,149.614274 L49.2339157,127.172264 L24.237977,127.172264 L24.237977,96.7556081 L8.03838314,93.0675507 L22.670613,67.0422128 L22.528364,66.1520101 C21.5987586,60.6961149 21.5462682,54.8584797 22.3535709,49.8717736 L24.237977,49.8717736 L49.2333908,49.8717736 L126.169126,49.8717736 Z M120.052943,44.8840203 L113.011877,44.8840203 L125.472054,15.9037331 L131.013467,18.6565541 L120.052943,44.8840203 Z M131.718414,13.4651014 L128.953743,12.0863345 L131.718414,10.0215878 L131.718414,13.4651014 Z" id="Shape"></path>
                    <path d="M41.7351341,64.8329392 C37.6009885,64.8329392 34.2363525,62.3393243 34.2363525,57.3520946 L29.2371648,57.3520946 C29.2371648,64.8329392 34.8436667,69.8201689 41.7351341,69.8201689 C48.6266015,69.8201689 54.2331034,64.8329392 54.2331034,57.3520946 L49.2339157,57.3520946 C49.2333908,62.3393243 45.8692797,64.8329392 41.7351341,64.8329392 Z" id="Shape"></path>
                </g>
            </g>
        </g>
    </g>
</svg>