<?xml version="1.0" encoding="UTF-8"?>
<svg width="295px" height="235px" viewBox="0 0 295 235" version="1.1" xmlns="http://www.w3.org/2000/svg" xmlns:xlink="http://www.w3.org/1999/xlink">
    <!-- Generator: Sketch 44.1 (41455) - http://www.bohemiancoding.com/sketch -->
    <title>Group 6</title>
    <desc>Created with Sketch.</desc>
    <defs></defs>
    <g id="Page-1" stroke="none" stroke-width="1" fill="none" fill-rule="evenodd">
        <g id="Desktop-HD" transform="translate(-720.000000, -305.000000)">
            <g id="Group-6" transform="translate(720.000000, 305.000000)">
                <rect id="Rectangle" fill="#F3F3F3" x="0" y="0" width="295" height="235"></rect>
                <g id="7-orientacao" transform="translate(70.000000, 45.000000)" fill-rule="nonzero" fill="#414141">
                    <ellipse id="Oval" cx="77.4987891" cy="13.8766639" rx="13.6360645" ry="13.6437303"></ellipse>
                    <path d="M99.6301855,18.884888 C97.3381836,29.0140166 88.306709,36.6163154 77.5003027,36.6163154 C66.6938965,36.6163154 57.6624219,29.0140166 55.3704199,18.884888 C47.2416992,20.697166 41.1373633,27.9435519 41.1373633,36.6163154 L41.1373633,54.8081577 C41.1373633,59.8224398 45.216709,63.9040788 50.2281738,63.9040788 C55.2396387,63.9040788 59.3189844,59.8224398 59.3189844,54.8081577 L59.3189844,45.7122365 L95.6819238,45.7122365 L95.6819238,54.8081577 C95.6819238,59.8224398 99.7612695,63.9040788 104.772734,63.9040788 C109.784199,63.9040788 113.863545,59.8224398 113.863545,54.8081577 L113.863545,36.6163154 C113.863242,27.9435519 107.758604,20.697166 99.6301855,18.884888 Z" id="Shape"></path>
                    <path d="M147.951436,111.384672 C141.429023,107.616842 133.0896,109.852278 129.323887,116.378357 C125.558477,122.90383 127.792959,131.248548 134.315371,135.015772 C140.837178,138.783602 149.480244,136.54756 153.245352,130.022087 C157.011064,123.496311 154.473242,115.152199 147.951436,111.384672 Z" id="Shape"></path>
                    <path d="M139.632295,80.3215062 L123.88708,71.2255851 C119.546777,68.718444 113.974648,70.2123693 111.468916,74.555112 C108.963184,78.8978548 110.45627,84.4731162 114.796572,86.9802573 L122.669482,91.5280664 L104.487861,123.037108 L96.6149512,118.489299 C92.2746484,115.982158 86.7025195,117.476083 84.1967871,121.818826 C81.6910547,126.161568 83.1841406,131.73683 87.5244434,134.243971 L103.269658,143.339892 C110.776865,147.676274 120.101084,146.009693 125.733457,139.872241 C118.112422,132.821834 116.047773,121.194842 121.450977,111.830548 C126.85418,102.466253 137.95,98.442166 147.86334,101.520282 C150.359385,93.5711577 147.139502,84.657888 139.632295,80.3215062 Z" id="Shape"></path>
                    <path d="M25.676416,116.37866 C21.9107031,109.852581 13.5712793,107.616842 7.04886719,111.384975 C0.527060547,115.152502 -2.01106445,123.496614 1.75495117,130.022693 C5.52005859,136.548166 14.163125,138.784207 20.6849316,135.016378 C27.2073438,131.248548 29.4418262,122.904133 25.676416,116.37866 Z" id="Shape"></path>
                    <path d="M70.8035156,121.818826 C68.2977832,117.476083 62.7253516,115.982461 58.3853516,118.489299 L50.5124414,123.037108 L32.3308203,91.5280664 L40.2037305,86.9802573 C44.5440332,84.4731162 46.0368164,78.8975519 43.5313867,74.555112 C41.0256543,70.2123693 35.4532227,68.7187469 31.1132227,71.2255851 L15.3680078,80.3215062 C7.86080078,84.657888 4.64091797,93.5711577 7.13726562,101.520585 C17.0503027,98.442166 28.1464258,102.466556 33.5496289,111.830851 C38.952832,121.195145 36.8881836,132.821834 29.2671484,139.872544 C34.8995215,146.009693 44.2237402,147.676577 51.7309473,143.340195 L67.4761621,134.243971 C71.8161621,131.73683 73.309248,126.161266 70.8035156,121.818826 Z" id="Shape"></path>
                </g>
            </g>
        </g>
    </g>
</svg>