<?xml version="1.0" encoding="UTF-8"?>
<svg width="295px" height="235px" viewBox="0 0 295 235" version="1.1" xmlns="http://www.w3.org/2000/svg" xmlns:xlink="http://www.w3.org/1999/xlink">
    <!-- Generator: Sketch 44.1 (41455) - http://www.bohemiancoding.com/sketch -->
    <title>Group 5</title>
    <desc>Created with Sketch.</desc>
    <defs></defs>
    <g id="Page-1" stroke="none" stroke-width="1" fill="none" fill-rule="evenodd">
        <g id="Desktop-HD" transform="translate(-1066.000000, -309.000000)">
            <g id="Group-5" transform="translate(1066.000000, 309.000000)">
                <rect id="Rectangle" fill="#F3F3F3" x="0" y="0" width="295" height="235"></rect>
                <g id="8-intercambio" transform="translate(68.000000, 46.000000)" fill-rule="nonzero" fill="#414141">
                    <path d="M127.690313,63.0155415 C127.690313,60.8171507 127.535625,58.6240677 127.237188,56.4559629 L160,56.2770568 L159.693125,0.130823144 L103.4975,0.437430131 L103.578438,15.1973406 L99.075625,19.2909498 C93.07,16.6694913 86.518125,15.2903843 79.92375,15.2903843 C71.5528125,15.2903843 63.3740625,17.4934585 56.1965625,21.5964345 L56.1965625,15.2903843 L0,15.2903843 L0,71.4375546 L32.9003125,71.4375546 C34.7203125,81.6451943 39.8278125,90.9929607 47.549375,98.107679 C56.39125,106.253996 67.8884375,110.740386 79.9234375,110.740386 C84.8596875,110.740386 89.6678125,110.002906 94.2846875,108.546679 L94.2846875,142.869177 L150.480938,142.869177 L150.480938,86.7220066 L121.37875,86.7220066 C125.485313,79.5504629 127.690313,71.3791681 127.690313,63.0155415 Z M112.966875,19.3140546 L112.914688,9.74398253 L150.378125,9.53978603 L150.5825,46.9701921 L113.119063,47.1747009 L113.066563,37.6043166 L102.84625,28.5144498 L112.966875,19.3140546 Z M103.72375,41.8243777 L103.79,53.9703231 L90.119375,53.9703231 C88.495,53.9703231 86.91875,54.3044061 85.434375,54.9638297 L82.34875,56.3338821 C81.4134375,56.7482074 80.655,56.409441 80.2859375,56.1699629 C79.9171875,55.9304847 79.29875,55.3759694 79.29875,54.3528013 C79.29875,52.879714 79.02125,51.4400349 78.4734375,50.0724803 L76.64875,45.5142773 C76.4815625,45.0965175 76.4484375,44.6450371 76.5525,44.207607 L77.9175,38.4801135 C78.15125,37.4994083 79.019375,36.8143821 80.028125,36.8143821 L98.09,36.8143821 L103.72375,41.8243777 Z M79.923125,24.6484541 C83.785,24.6484541 87.6271875,25.2351288 91.29375,26.3663275 L90.0953125,27.456 L80.0284375,27.456 C74.66375,27.456 70.0496875,31.0978166 68.8065625,36.3120087 L67.8096875,40.4942904 L57.90125,31.5845786 C64.3246875,27.0913188 72.016875,24.6484541 79.923125,24.6484541 Z M75.240625,67.7551485 L75.240625,81.9817751 C75.240625,83.2194432 74.2328125,84.2260633 72.994375,84.2260633 C71.9334375,84.2260633 71.0315625,83.5032576 70.8015625,82.4682249 L67.6375,68.2419105 C67.434375,67.3270852 67.8259375,66.6642271 68.0784375,66.3507511 C68.3303125,66.0369629 68.893125,65.5108603 69.830625,65.5108603 L72.995,65.5108603 C74.2328125,65.5108603 75.240625,66.5174803 75.240625,67.7551485 Z M9.3659375,62.0797969 L9.3659375,24.6484541 L46.83,24.6484541 L46.83,34.2188384 L57.000625,43.3642817 L46.83,52.5097249 L46.83,62.0801092 L9.3659375,62.0801092 L9.3659375,62.0797969 Z M92.203125,99.3818777 C88.270625,100.710404 84.156875,101.382941 79.92375,101.382941 C70.24875,101.382941 61.00625,97.7767183 53.899375,91.2283799 C48.1078125,85.892107 44.1465625,78.9962598 42.4525,71.4378668 L56.1965625,71.4378668 L56.1965625,56.6776441 L67.3046875,46.6891878 C67.441875,47.4700677 67.6534375,48.2406441 67.9534375,48.9896769 L69.778125,53.5478799 C69.88125,53.8048428 69.9334375,54.0755437 69.9334375,54.3528013 C69.9334375,54.9622686 69.9865625,55.5629934 70.079375,56.1537271 L69.8303125,56.1537271 C66.289375,56.1537271 62.9878125,57.7364061 60.7721875,60.4964934 C58.5565625,63.2562686 57.72625,66.8197162 58.4946875,70.2732598 L61.65875,84.4995742 C62.8484375,89.8489607 67.51,93.5850699 72.9946875,93.5850699 C79.3978125,93.5850699 84.606875,88.3802445 84.606875,81.983024 L84.606875,67.7560852 C84.606875,66.9855087 84.529375,66.2333537 84.385625,65.5043035 C84.9846875,65.3472533 85.5759375,65.1411834 86.15375,64.884845 L89.239375,63.5147926 C89.5184375,63.3908384 89.8146875,63.3280808 90.12,63.3280808 L112.782188,63.3280808 C114.75,63.3280808 116.639688,62.8356987 118.309063,61.9246201 C118.319375,62.2880524 118.325,62.6521092 118.325,63.0161659 C118.325,71.2227424 115.686563,79.1988952 110.849375,85.7615961 L85.660625,78.1351376 L92.203125,99.3818777 Z M141.115,96.0800764 L141.115,133.511419 L103.650938,133.511419 L103.650938,104.734074 L99.7878125,92.1900393 L112.635313,96.0797642 L141.115,96.0797642 L141.115,96.0800764 Z" id="Shape"></path>
                </g>
            </g>
        </g>
    </g>
</svg>