<?xml version="1.0" encoding="UTF-8"?>
<svg width="295px" height="235px" viewBox="0 0 295 235" version="1.1" xmlns="http://www.w3.org/2000/svg" xmlns:xlink="http://www.w3.org/1999/xlink">
    <!-- Generator: Sketch 44.1 (41455) - http://www.bohemiancoding.com/sketch -->
    <title>Group 9</title>
    <desc>Created with Sketch.</desc>
    <defs></defs>
    <g id="Page-1" stroke="none" stroke-width="1" fill="none" fill-rule="evenodd">
        <g id="Desktop-HD" transform="translate(-44.000000, -583.000000)">
            <g id="Group-9" transform="translate(44.000000, 583.000000)">
                <rect id="Rectangle" fill="#F3F3F3" x="0" y="0" width="295" height="235"></rect>
                <g id="9-intervencao" transform="translate(81.000000, 42.000000)" fill-rule="nonzero" fill="#414141">
                    <rect id="Rectangle-path" x="64.037037" y="0" width="4.92592593" height="9.80645161"></rect>
                    <rect id="Rectangle-path" transform="translate(48.027297, 9.831203) rotate(59.999272) translate(-48.027297, -9.831203) " x="43.1016339" y="7.37964382" width="9.85132725" height="4.90311793"></rect>
                    <rect id="Rectangle-path" transform="translate(34.502915, 23.287755) rotate(30.000728) translate(-34.502915, -23.287755) " x="29.5772515" y="20.8361955" width="9.85132725" height="4.90311793"></rect>
                    <rect id="Rectangle-path" x="24.6296296" y="39.2258065" width="9.85185185" height="4.90322581"></rect>
                    <rect id="Rectangle-path" transform="translate(34.506452, 60.064765) rotate(-119.992901) translate(-34.506452, -60.064765) " x="32.0434528" y="55.1614676" width="4.92599789" height="9.80659488"></rect>
                    <rect id="Rectangle-path" transform="translate(98.490971, 60.061814) rotate(30.000728) translate(-98.490971, -60.061814) " x="93.5653076" y="57.6102555" width="9.85132725" height="4.90311793"></rect>
                    <rect id="Rectangle-path" x="98.5185185" y="39.2258065" width="9.85185185" height="4.90322581"></rect>
                    <rect id="Rectangle-path" transform="translate(98.498469, 23.294328) rotate(60.007099) translate(-98.498469, -23.294328) " x="96.0354704" y="18.3910306" width="4.92599789" height="9.80659488"></rect>
                    <rect id="Rectangle-path" transform="translate(84.973866, 9.828392) rotate(29.992901) translate(-84.973866, -9.828392) " x="82.510867" y="4.92509445" width="4.92599789" height="9.80659488"></rect>
                    <path d="M93.5925926,41.6774194 C93.5925926,26.8083871 81.4378704,14.7096774 66.5,14.7096774 C51.5621296,14.7096774 39.4074074,26.8083871 39.4074074,41.6774194 C39.4074074,48.6203871 42.0230741,55.1465806 46.7962963,60.1723871 L46.7962963,61.2903226 L41.8703704,61.2903226 L41.8703704,66.1935484 L46.7962963,66.1935484 L46.7962963,71.0967742 L41.8703704,71.0967742 L41.8703704,76 L46.7962963,76 L46.7962963,85.8064516 L86.2037037,85.8064516 L86.2037037,76 L91.1296296,76 L91.1296296,71.0967742 L86.2037037,71.0967742 L86.2037037,66.1935484 L91.1296296,66.1935484 L91.1296296,61.2903226 L86.2037037,61.2903226 L86.2037037,60.1723871 C90.974463,55.1465806 93.5925926,48.6203871 93.5925926,41.6774194 Z M81.2777778,80.9032258 L51.7222222,80.9032258 L51.7222222,76 L81.2777778,76 L81.2777778,80.9032258 Z M81.2777778,71.0967742 L51.7222222,71.0967742 L51.7222222,66.1935484 L81.2777778,66.1935484 L81.2777778,71.0967742 Z M82.0166667,57.4216774 L81.2777778,58.1424516 L81.2777778,61.2903226 L68.962963,61.2903226 L68.962963,51.1357419 C73.1992593,50.039871 76.3518519,46.2349677 76.3518519,41.6774194 C76.3518519,36.2691613 71.9332963,31.8709677 66.5,31.8709677 C61.0667037,31.8709677 56.6481481,36.2691613 56.6481481,41.6774194 C56.6481481,46.2349677 59.7982778,50.039871 64.037037,51.1357419 L64.037037,61.2903226 L51.7222222,61.2903226 L51.7222222,58.1424516 L50.9833333,57.4216774 C46.6953148,53.2343226 44.3333333,47.6421935 44.3333333,41.6774194 C44.3333333,29.5100645 54.2763148,19.6129032 66.5,19.6129032 C78.7236852,19.6129032 88.6666667,29.5100645 88.6666667,41.6774194 C88.6666667,47.6421935 86.3046852,53.2343226 82.0166667,57.4216774 Z M66.5,46.5806452 C63.7833519,46.5806452 61.5740741,44.3815484 61.5740741,41.6774194 C61.5740741,38.9732903 63.7833519,36.7741935 66.5,36.7741935 C69.2141852,36.7741935 71.4259259,38.9732903 71.4259259,41.6774194 C71.4259259,44.3815484 69.2141852,46.5806452 66.5,46.5806452 Z" id="Shape"></path>
                    <path d="M123.148148,58.8387097 C117.714852,58.8387097 113.296296,63.2369032 113.296296,68.6451613 C113.296296,71.1114839 114.244537,73.34 115.759259,75.0634839 L115.759259,97.6747097 C113.456389,96.6695484 110.973722,95.9953548 108.37037,95.7379355 L108.37037,90.7096774 L24.6296296,90.7096774 L24.6296296,95.7379355 C22.0238148,95.9978065 19.5436111,96.6695484 17.2407407,97.6747097 L17.2407407,75.0634839 C18.755463,73.34 19.7037037,71.1114839 19.7037037,68.6451613 C19.7037037,63.2369032 15.2851481,58.8387097 9.85185185,58.8387097 C4.41855556,58.8387097 0,63.2369032 0,68.6451613 C0,71.1114839 0.948240741,73.34 2.46296296,75.0634839 L2.46296296,120.129032 C2.46296296,132.818581 12.2015185,143.286968 24.6296296,144.520129 L24.6296296,152 L108.37037,152 L108.37037,144.520129 C120.798481,143.284516 130.537037,132.818581 130.537037,120.129032 L130.537037,75.0634839 C132.051759,73.34 133,71.1114839 133,68.6451613 C133,63.2369032 128.581444,58.8387097 123.148148,58.8387097 Z M4.92592593,68.6451613 C4.92592593,65.9410323 7.1352037,63.7419355 9.85185185,63.7419355 C12.566037,63.7419355 14.7777778,65.9410323 14.7777778,68.6451613 C14.7777778,71.3492903 12.566037,73.5483871 9.85185185,73.5483871 C7.1352037,73.5483871 4.92592593,71.3492903 4.92592593,68.6451613 Z M12.3788519,100.516129 C10.4848333,101.928258 8.80755556,103.597806 7.38888889,105.483097 L7.38888889,78.1034839 C8.1795,78.3094194 8.9972037,78.4516129 9.85185185,78.4516129 C10.7065,78.4516129 11.5217407,78.3094194 12.3148148,78.1034839 L12.3148148,100.516129 L12.3788519,100.516129 Z M24.6296296,107.870968 L19.7037037,107.870968 L19.7037037,112.774194 L24.6296296,112.774194 L24.6296296,117.677419 L19.7037037,117.677419 L19.7037037,122.580645 L24.6296296,122.580645 L24.6296296,127.483871 L19.7037037,127.483871 L19.7037037,132.387097 L24.6296296,132.387097 L24.6296296,139.572774 C14.9255556,138.359226 7.38888889,130.112 7.38888889,120.129032 C7.38888889,110.146065 14.9255556,101.898839 24.6296296,100.68529 L24.6296296,107.870968 Z M78.8148148,147.096774 L54.1851852,147.096774 L54.1851852,137.290323 L78.8148148,137.290323 L78.8148148,147.096774 Z M103.444444,147.096774 L83.7407407,147.096774 L83.7407407,132.387097 L49.2592593,132.387097 L49.2592593,147.096774 L29.5555556,147.096774 L29.5555556,95.6129032 L103.444444,95.6129032 L103.444444,147.096774 Z M108.37037,139.572774 L108.37037,132.387097 L113.296296,132.387097 L113.296296,127.483871 L108.37037,127.483871 L108.37037,122.580645 L113.296296,122.580645 L113.296296,117.677419 L108.37037,117.677419 L108.37037,112.774194 L113.296296,112.774194 L113.296296,107.870968 L108.37037,107.870968 L108.37037,100.68529 C118.074444,101.898839 125.611111,110.146065 125.611111,120.129032 C125.611111,130.112 118.074444,138.359226 108.37037,139.572774 Z M125.611111,105.483097 C124.192444,103.597806 122.515167,101.928258 120.621148,100.516129 L120.685185,100.516129 L120.685185,78.1034839 C121.475796,78.3094194 122.2935,78.4516129 123.148148,78.4516129 C124.002796,78.4516129 124.818037,78.3094194 125.611111,78.1034839 L125.611111,105.483097 Z M123.148148,73.5483871 C120.4315,73.5483871 118.222222,71.3492903 118.222222,68.6451613 C118.222222,65.9410323 120.4315,63.7419355 123.148148,63.7419355 C125.862333,63.7419355 128.074074,65.9410323 128.074074,68.6451613 C128.074074,71.3492903 125.862333,73.5483871 123.148148,73.5483871 Z" id="Shape"></path>
                    <path d="M46.7962963,129.935484 C53.5866852,129.935484 59.1111111,124.436516 59.1111111,117.677419 C59.1111111,110.918323 53.5866852,105.419355 46.7962963,105.419355 C40.0059074,105.419355 34.4814815,110.918323 34.4814815,117.677419 C34.4814815,124.436516 40.0059074,129.935484 46.7962963,129.935484 Z M46.7962963,110.322581 C50.870037,110.322581 54.1851852,113.622452 54.1851852,117.677419 C54.1851852,121.732387 50.870037,125.032258 46.7962963,125.032258 C42.7225556,125.032258 39.4074074,121.732387 39.4074074,117.677419 C39.4074074,113.622452 42.7225556,110.322581 46.7962963,110.322581 Z" id="Shape"></path>
                    <path d="M86.2037037,129.935484 C92.9940926,129.935484 98.5185185,124.436516 98.5185185,117.677419 C98.5185185,110.918323 92.9940926,105.419355 86.2037037,105.419355 C79.4133148,105.419355 73.8888889,110.918323 73.8888889,117.677419 C73.8888889,124.436516 79.4133148,129.935484 86.2037037,129.935484 Z M86.2037037,110.322581 C90.2774444,110.322581 93.5925926,113.622452 93.5925926,117.677419 C93.5925926,121.732387 90.2774444,125.032258 86.2037037,125.032258 C82.129963,125.032258 78.8148148,121.732387 78.8148148,117.677419 C78.8148148,113.622452 82.129963,110.322581 86.2037037,110.322581 Z" id="Shape"></path>
                </g>
            </g>
        </g>
    </g>
</svg>