<?xml version="1.0" encoding="UTF-8"?>
<svg width="62px" height="50px" viewBox="0 0 62 50" version="1.1" xmlns="http://www.w3.org/2000/svg" xmlns:xlink="http://www.w3.org/1999/xlink">
    <!-- Generator: Sketch 44.1 (41455) - http://www.bohemiancoding.com/sketch -->
    <title>twitter-logo-silhouette</title>
    <desc>Created with Sketch.</desc>
    <defs></defs>
    <g id="Page-1" stroke="none" stroke-width="1" fill="none" fill-rule="evenodd">
        <g id="Home" transform="translate(-1736.000000, -39.000000)" fill-rule="nonzero" fill="#414141">
            <g id="twitter-logo-silhouette" transform="translate(1736.000000, 39.000000)">
                <path d="M61.8421053,5.94959839 C59.5659722,6.95170683 57.1237143,7.6313253 54.5576711,7.93473896 C57.1777756,6.37580321 59.1834,3.90311245 60.1339697,0.965763052 C57.6762513,2.40943775 54.9633836,3.45773092 52.0727705,4.02600402 C49.7580366,1.57248996 46.4655508,0.0442771084 42.813633,0.0442771084 C35.8074884,0.0442771084 30.126806,5.68855422 30.126806,12.6459839 C30.126806,13.6327309 30.2388695,14.5964859 30.4553169,15.5180723 C19.9132589,14.9919679 10.5652993,9.97359438 4.30883858,2.34799197 C3.21518318,4.2064257 2.59302331,6.37188755 2.59302331,8.68343373 C2.59302331,13.0568273 4.83439542,16.9156627 8.23510492,19.1732932 C6.1560178,19.1042169 4.2006149,18.5359438 2.48874054,17.5913655 L2.48874054,17.7487952 C2.48874054,23.8538153 6.86326109,28.948996 12.6636868,30.1086345 C11.6009524,30.3927711 10.4803169,30.5502008 9.32097953,30.5502008 C8.50177374,30.5502008 7.70954807,30.4695783 6.93278294,30.3159639 C8.54805427,35.3267068 13.2317853,38.9704819 18.7811038,39.0703815 C14.4413442,42.4492972 8.96932835,44.4574297 3.02591804,44.4574297 C2.00188553,44.4574297 0.993212504,44.3959839 0.000101049192,44.2846386 C5.61510148,47.8670683 12.2812156,49.9558233 19.4458054,49.9558233 C42.7829141,49.9558233 55.539364,30.7498996 55.539364,14.0935743 L55.4968223,12.461747 C57.9893017,10.6953815 60.1455904,8.47610442 61.8421053,5.94959839 Z" id="Shape"></path>
            </g>
        </g>
    </g>
</svg>