<?xml version="1.0" encoding="UTF-8"?>
<svg width="28px" height="50px" viewBox="0 0 28 50" version="1.1" xmlns="http://www.w3.org/2000/svg" xmlns:xlink="http://www.w3.org/1999/xlink">
    <!-- Generator: Sketch 44.1 (41455) - http://www.bohemiancoding.com/sketch -->
    <title>facebook-logo</title>
    <desc>Created with Sketch.</desc>
    <defs></defs>
    <g id="Page-1" stroke="none" stroke-width="1" fill="none" fill-rule="evenodd">
        <g id="Home" transform="translate(-1836.000000, -39.000000)" fill-rule="nonzero" fill="#414141">
            <g id="facebook-logo" transform="translate(1836.000000, 39.000000)">
                <path d="M25.9895755,0.0103092784 L19.5218868,0 C12.2556604,0 7.55990566,4.78608247 7.55990566,12.1938144 L7.55990566,17.8159794 L1.05693396,17.8159794 C0.495,17.8159794 0.0399528302,18.2685567 0.0399528302,18.8268041 L0.0399528302,26.9726804 C0.0399528302,27.5309278 0.495518868,27.9829897 1.05693396,27.9829897 L7.55990566,27.9829897 L7.55990566,48.5376289 C7.55990566,49.0958763 8.01495283,49.5479381 8.57688679,49.5479381 L17.0614151,49.5479381 C17.6233491,49.5479381 18.0783962,49.0953608 18.0783962,48.5376289 L18.0783962,27.9829897 L25.6818868,27.9829897 C26.2438208,27.9829897 26.6988679,27.5309278 26.6988679,26.9726804 L26.7019811,18.8268041 C26.7019811,18.5587629 26.5945755,18.3020619 26.4041509,18.1123711 C26.2137264,17.9226804 25.9542925,17.8159794 25.6844811,17.8159794 L18.0783962,17.8159794 L18.0783962,13.05 C18.0783962,10.7592784 18.6278774,9.59639175 21.6316038,9.59639175 L25.9885377,9.59484536 C26.5499528,9.59484536 27.005,9.14226804 27.005,8.58453608 L27.005,1.02061856 C27.005,0.463402062 26.5504717,0.0113402062 25.9895755,0.0103092784 Z" id="Shape"></path>
            </g>
        </g>
    </g>
</svg>